<svg xmlns="http://www.w3.org/2000/svg" viewBox="0 0 24 24"><path d="M6.766 11.506 4.937 12.97A5.162 5.162 0 0 0 3 17v2.414C4.638 21.181 8.236 22 12 22c3.764 0 7.362-.82 9-2.586V17c0-1.567-.714-3.05-1.938-4.03l-1.828-1.464-1.25 1.562 1.83 1.463C18.564 15.131 19 16.04 19 17v1.455c-.776.696-3.318 1.545-7 1.545s-6.224-.849-7-1.545V17c0-.961.435-1.868 1.186-2.469l1.83-1.463zM12 2C9.25 2 7 4.25 7 7s2.25 5 5 5 5-2.25 5-5-2.25-5-5-5zm0 2c1.669 0 3 1.331 3 3s-1.331 3-3 3-3-1.331-3-3 1.331-3 3-3z" color="#000" paint-order="fill markers stroke" style="font-feature-settings:normal;font-variant-alternates:normal;font-variant-caps:normal;font-variant-east-asian:normal;font-variant-ligatures:normal;font-variant-numeric:normal;font-variant-position:normal;font-variation-settings:normal;inline-size:0;isolation:auto;mix-blend-mode:normal;shape-margin:0;shape-padding:0;text-decoration-color:#000;text-decoration-line:none;text-decoration-style:solid;text-indent:0;text-orientation:mixed;text-transform:none"/></svg>