<svg xmlns="http://www.w3.org/2000/svg" viewBox="0 0 512 512"><path fill="#f96464" d="m280.878 309.622-99.306 195.917c-2.293 4.524-8.971 3.774-10.204-1.146l-14.991-59.822-57.111 23.275c-4.697 1.914-9.25-3.029-6.957-7.553l99.306-195.917 89.263 45.246z"/><path d="m280.877 309.634-99.293 195.9c-2.311 4.513-8.973 3.761-10.209-1.128l-3.224-12.788 96.445-190.205 16.281 8.221z" opacity=".08"/><path fill="#f96464" d="m231.122 309.622 99.306 195.917c2.293 4.524 8.971 3.774 10.204-1.146l14.991-59.822 57.111 23.275c4.697 1.914 9.25-3.029 6.957-7.553l-99.306-195.917-89.263 45.246z"/><path d="m412.731 467.869-10.638-4.352-94.512-186.336 12.788-12.788 99.347 195.9c2.257 4.513-2.311 9.456-6.985 7.576z" opacity=".08"/><path fill="#ffce29" d="m417.015 262.458-.037.02a25.783 25.783 0 0 0-13.753 23.753l.005.126c.483 13.229-9.132 24.674-22.245 26.481l-.151.021a25.782 25.782 0 0 0-21.032 17.671l-.012.039c-4.05 12.633-17.024 20.131-29.992 17.332l-.076-.016a25.784 25.784 0 0 0-25.8 9.384l-.043.056c-8.135 10.471-22.887 13.064-34.106 5.995l-.027-.017a25.782 25.782 0 0 0-27.491 0l-.027.017c-11.219 7.07-25.97 4.477-34.106-5.995l-.043-.056a25.784 25.784 0 0 0-25.8-9.384l-.076.016c-12.967 2.799-25.942-4.699-29.992-17.332l-.012-.039a25.785 25.785 0 0 0-21.032-17.671l-.151-.021c-13.114-1.807-22.728-13.252-22.245-26.481l.005-.126a25.783 25.783 0 0 0-13.753-23.753l-.037-.02c-11.755-6.19-16.882-20.298-11.844-32.59a25.783 25.783 0 0 0-4.767-27.107l-.007-.008c-8.924-9.83-8.924-24.829 0-34.659l.007-.008a25.783 25.783 0 0 0 4.767-27.107c-5.038-12.293.089-26.401 11.844-32.591l.014-.007a25.783 25.783 0 0 0 13.751-23.791l-.004-.093c-.503-13.257 9.137-24.732 22.282-26.524l.039-.005a25.783 25.783 0 0 0 21.074-17.687l.016-.049c4.045-12.639 17.024-20.143 29.995-17.343l.086.019a25.783 25.783 0 0 0 25.781-9.36l.097-.124c8.141-10.452 22.878-13.034 34.087-5.97l.051.032a25.782 25.782 0 0 0 27.491 0l.051-.032c11.209-7.063 25.946-4.482 34.087 5.97l.097.124a25.783 25.783 0 0 0 25.781 9.36l.086-.019c12.972-2.8 25.95 4.704 29.995 17.343l.016.049a25.783 25.783 0 0 0 21.074 17.687l.039.005c13.145 1.792 22.785 13.267 22.282 26.524l-.004.093a25.784 25.784 0 0 0 13.751 23.791l.014.007c11.755 6.19 16.882 20.298 11.844 32.591a25.783 25.783 0 0 0 4.767 27.107l.007.008c8.924 9.83 8.924 24.829 0 34.659l-.007.008a25.783 25.783 0 0 0-4.767 27.107c5.038 12.292-.089 26.4-11.844 32.59z"/><path d="M433.632 202.764a25.784 25.784 0 0 0-6.716 17.355c0 3.277.645 6.555 1.934 9.725 1.289 3.224 1.935 6.555 1.935 9.832 0 9.296-5.051 18.215-13.755 22.782h-.053c-8.758 4.621-14.131 13.862-13.755 23.749v.161c.483 13.218-9.134 24.662-22.244 26.489h-.161a25.69 25.69 0 0 0-21.008 17.677v.054c-4.084 12.626-17.032 20.095-30.035 17.301h-.054a25.74 25.74 0 0 0-25.79 9.403l-.054.054c-8.113 10.424-22.889 13.056-34.119 5.964-.806-.483-1.612-.967-2.418-1.343 5.269-3.952 12.936-17.878 30.572-14.077h.054c13.003 2.794 25.952-4.674 29.982-17.301l.054-.054a25.69 25.69 0 0 1 21.008-17.677h.161c13.11-1.827 22.728-13.271 22.244-26.489v-.161c-.376-9.887 4.997-19.128 13.755-23.749 8.704-4.567 13.809-13.54 13.809-22.835 0-3.278-.645-6.609-1.934-9.779a26.006 26.006 0 0 1-1.934-9.779c0-6.286 2.31-12.465 6.716-17.301 4.459-4.889 6.662-11.122 6.662-17.355a25.733 25.733 0 0 0-6.662-17.301 25.785 25.785 0 0 1-6.716-17.355c0-3.277.645-6.609 1.934-9.779a26.006 26.006 0 0 0 1.934-9.779c0-9.295-5.104-18.214-13.809-22.835-8.758-4.621-14.131-13.862-13.755-23.749v-.108c.538-13.271-9.134-24.716-22.244-26.542h-.054c-9.833-1.343-18.054-8.221-21.062-17.677l-.053-.054c-4.03-12.626-16.979-20.149-29.982-17.355l-.108.054c-17.71 3.739-25.561-10.413-30.519-14.131 1.554-.725 1.88-1.02 2.418-1.343 11.176-7.092 25.952-4.513 34.065 5.964l.108.108c6.072 7.844 16.119 11.445 25.79 9.403l.054-.054c13.003-2.794 25.952 4.728 30.035 17.355v.054c3.009 9.457 11.229 16.334 21.062 17.677h.054c13.164 1.827 22.782 13.271 22.298 26.542v.108a25.744 25.744 0 0 0 13.701 23.749h.053c11.767 6.233 16.871 20.31 11.821 32.614-1.289 3.17-1.934 6.448-1.934 9.725 0 6.34 2.31 12.573 6.716 17.409a25.729 25.729 0 0 1 6.662 17.301c0 6.231-2.203 12.464-6.663 17.353z" opacity=".08"/><circle cx="256" cy="185.384" r="128.677" fill="#f2b816" transform="rotate(-45.001 256 185.388)"/><path d="M259.654 313.986c-5.481.161-10.854-.054-16.173-.537 66.894-6.34 118.206-63.617 116.272-131.746-1.88-65.605-52.441-118.26-116.111-124.385 2.848-.269 5.749-.43 8.704-.537 71.031-2.042 130.242 53.892 132.284 124.923 2.042 71.083-53.891 130.294-124.976 132.282z" opacity=".08"/><path fill="#fff" d="M137.038 92.674a8.055 8.055 0 0 1-.792-11.368 158.794 158.794 0 0 1 38.157-32.023c3.809-2.288 8.768-1.063 11.061 2.763 2.293 3.815 1.055 8.765-2.76 11.058a142.731 142.731 0 0 0-34.295 28.775c-2.913 3.36-8.009 3.718-11.371.795z" opacity=".4"/><path fill="#f2f0f0" d="m302.301 208.726 14.492 44.582c3.217 9.898-8.107 18.132-16.531 12.02l-37.948-27.536a10.747 10.747 0 0 0-12.626.003l-37.906 27.53c-8.42 6.115-19.747-2.111-16.537-12.01l14.461-44.593a10.747 10.747 0 0 0-3.907-12.01l-37.861-27.498c-8.424-6.118-4.096-19.441 6.315-19.441h46.82c4.655 0 8.781-2.997 10.22-7.424l14.489-44.573c3.218-9.899 17.222-9.899 20.439 0l14.489 44.573a10.746 10.746 0 0 0 10.22 7.424h46.819c10.411 0 14.738 13.323 6.315 19.441l-37.857 27.495a10.744 10.744 0 0 0-3.906 12.017z"/><path d="M435.553 166.333c-5.972-6.58-7.655-16.146-4.287-24.368 5.578-13.605-.028-29.031-13.053-35.89-7.846-4.13-12.697-12.526-12.359-21.48.557-14.665-9.989-27.22-24.571-29.208-8.8-1.2-16.236-7.442-18.962-15.95-4.475-13.982-18.69-22.192-33.111-19.076-8.627 1.865-17.741-1.435-23.274-8.538-9-11.559-25.135-14.387-37.581-6.543-7.505 4.732-17.208 4.735-24.764-.032-12.397-7.809-28.527-4.981-37.626 6.698-5.436 6.977-14.538 10.283-23.264 8.395-14.355-3.09-28.552 5.11-33.04 19.144-2.71 8.46-10.147 14.702-18.985 15.907-14.543 1.983-25.089 14.538-24.53 29.296.336 8.862-4.515 17.257-12.377 21.395-13.01 6.851-18.616 22.277-13.038 35.882 3.369 8.222 1.686 17.789-4.294 24.377-9.875 10.877-9.875 27.282.008 38.167 5.972 6.583 7.655 16.149 4.287 24.371-5.578 13.605.028 29.031 13.076 35.901 7.833 4.125 12.687 12.508 12.359 21.48-.534 14.624 9.995 27.159 24.642 29.178 8.782 1.209 16.203 7.446 18.921 15.924a28.757 28.757 0 0 0 2.331 5.314L90.002 459.132c-3.34 6.566 3.215 13.949 10.258 11.143l54.309-22.156 14.267 56.913c1.831 7.265 11.725 8.313 15.048 1.666l72.117-142.256 72.117 142.256c3.366 6.731 13.238 5.547 15.048-1.692l14.241-56.887 54.336 22.156c6.992 2.808 13.611-4.548 10.258-11.143l-62.065-122.465a28.861 28.861 0 0 0 2.345-5.344c2.705-8.44 10.127-14.677 19.061-15.907 14.495-1.997 25.023-14.532 24.484-29.282-.323-8.847 4.531-17.229 12.316-21.329l.038-.019c.015-.009.033-.017.048-.025 13.01-6.851 18.616-22.277 13.04-35.882-3.371-8.222-1.688-17.789 4.292-24.377 9.876-10.878 9.876-27.283-.007-38.169zM179.251 504.355c-1.202 2.365-4.685 2.004-5.363-.599l-14.996-59.803c-.396-1.581-2.113-2.368-3.515-1.796l-57.069 23.275c-2.545 1.026-4.863-1.611-3.671-3.957l60.818-119.996.011-.021c6.601 7.516 16.909 11.221 27.362 8.97 8.652-1.865 17.762 1.444 23.238 8.492 8.998 11.585 25.135 14.421 37.578 6.584 2.324-1.465 4.869-2.421 7.484-2.978l-71.877 141.829zM356.549 341.48l60.818 119.996c1.209 2.38-1.223 4.963-3.645 3.957l-57.121-23.275c-1.405-.572-3.12.219-3.514 1.796l-14.97 59.776c-.678 2.636-4.161 2.991-5.363.625l-71.875-141.824c2.62.56 5.171 1.52 7.506 2.991 4.709 2.966 9.954 4.398 15.146 4.398 8.492 0 16.839-3.833 22.45-11.056 5.428-6.994 14.535-10.312 23.269-8.419 10.398 2.247 20.686-1.463 27.287-8.992l.012.027zm69.902-110.625a23.09 23.09 0 0 1-10.648 29.3l-.038.019c-9.593 5.052-15.537 15.317-15.135 26.278.435 11.941-8.161 22.176-20.152 23.828-10.752 1.482-19.842 9.117-23.167 19.493-3.661 11.413-15.26 18.113-27.039 15.565-10.612-2.288-21.754 1.767-28.448 10.387-7.345 9.453-20.528 11.776-30.69 5.372-8.894-5.603-21.019-5.825-30.294.018-10.137 6.389-23.312 4.069-30.703-5.446-6.637-8.54-17.768-12.624-28.484-10.315-11.698 2.523-23.302-4.167-26.976-15.62-3.313-10.338-12.402-17.973-23.304-19.477-11.838-1.631-20.437-11.866-19.997-23.932.397-10.835-5.548-21.1-15.179-26.171-10.623-5.595-15.202-18.19-10.645-29.3 4.126-10.071 2.067-21.785-5.258-29.854-8.062-8.882-8.062-22.277.008-31.167 7.317-8.06 9.377-19.774 5.248-29.845-4.554-11.109.025-23.705 10.663-29.307 9.608-5.058 15.55-15.34 15.135-26.286-.455-11.975 8.159-22.226 20.07-23.851 10.778-1.47 19.885-9.112 23.218-19.522 3.654-11.416 15.247-18.119 27.055-15.573 10.584 2.29 21.728-1.758 28.481-10.429 7.348-9.435 20.523-11.75 30.695-5.335 9.194 5.794 21.077 5.794 30.317-.032 10.122-6.378 23.297-4.071 30.741 5.491 6.654 8.547 17.787 12.588 28.471 10.287 11.734-2.518 23.312 4.175 26.983 15.643 3.318 10.359 12.425 18.002 23.241 19.477 11.873 1.62 20.487 11.871 20.03 23.939-.412 10.853 5.53 21.134 15.153 26.2a23.09 23.09 0 0 1 10.648 29.3c-4.129 10.071-2.07 21.785 5.255 29.854 8.062 8.881 8.062 22.276-.008 31.167-7.317 8.059-9.376 19.773-5.247 29.844z"/><path d="M252.26 54.157c-72.54 2.067-129.556 62.414-127.488 134.968 2.084 73.121 63.022 129.557 134.968 127.487 72.359-2.063 129.55-62.61 127.488-134.968-2.071-72.655-62.562-129.562-134.968-127.487zm7.333 257.25c-69.686 1.956-127.63-52.757-129.614-122.43-1.989-69.667 52.753-127.63 122.428-129.616 69.752-1.942 127.631 52.801 129.614 122.43 1.989 69.668-52.753 127.628-122.428 129.616z"/><path d="M337.749 147.17h-46.82a8.12 8.12 0 0 1-7.744-5.625l-14.487-44.572c-1.823-5.604-6.806-9.224-12.7-9.223-5.888 0-10.872 3.621-12.692 9.223l-14.49 44.572a8.12 8.12 0 0 1-7.744 5.625h-46.82c-5.891 0-10.874 3.62-12.695 9.224-1.82 5.605.084 11.464 4.851 14.927l37.86 27.497a8.128 8.128 0 0 1 2.962 9.101l-14.462 44.593c-1.815 5.604.089 11.459 4.856 14.921 4.765 3.46 10.923 3.459 15.687-.001l37.906-27.53a8.122 8.122 0 0 1 9.567-.001l37.949 27.535c4.767 3.457 10.92 3.458 15.69-.008 4.765-3.464 6.666-9.322 4.846-14.924l-14.492-44.581a8.122 8.122 0 0 1 2.959-9.106l37.855-27.494c4.767-3.463 6.671-9.321 4.851-14.926-1.817-5.605-6.802-9.227-12.693-9.227zm4.782 19.938-37.855 27.494a13.319 13.319 0 0 0-4.851 14.928l14.492 44.581c1.348 4.148-.643 7.422-2.957 9.103s-6.038 2.564-9.57.004l-37.947-27.534a13.316 13.316 0 0 0-15.687.003l-37.906 27.53c-3.521 2.562-7.254 1.679-9.567 0-2.314-1.679-4.307-4.953-2.962-9.1l14.462-44.594a13.321 13.321 0 0 0-4.854-14.919l-37.86-27.497c-3.532-2.564-3.844-6.384-2.959-9.105.882-2.72 3.382-5.627 7.742-5.627h46.82a13.318 13.318 0 0 0 12.697-9.223l14.49-44.572c1.348-4.147 4.882-5.625 7.742-5.625 2.86-.001 6.397 1.477 7.744 5.625l14.487 44.572a13.318 13.318 0 0 0 12.697 9.223h46.82c4.363 0 6.86 2.907 7.744 5.628.882 2.721.57 6.541-2.962 9.105z"/></svg>