<svg xmlns="http://www.w3.org/2000/svg" viewBox="0 0 514 514"><path fill="#231F20" d="M257 125.6c25.6 0 46.4-20.8 46.4-46.4S282.6 32.7 257 32.7s-46.4 20.8-46.4 46.4 20.8 46.5 46.4 46.5zm0-81.2c19.2 0 34.8 15.6 34.8 34.8 0 19.2-15.6 34.8-34.8 34.8s-34.8-15.6-34.8-34.8c0-19.2 15.6-34.8 34.8-34.8zm-62.2 196.5h124.4c3.2 0 5.8-2.6 5.8-5.8v-34.5c0-31.1-21-58.2-51.1-65.9-2.5-.7-5.2.5-6.5 2.7L257 155.6l-10.5-18.1c-1.3-2.3-4-3.4-6.5-2.7-30.1 7.7-51.1 34.8-51.1 65.9v34.5c0 3.1 2.7 5.7 5.9 5.7zm5.8-40.3c0-24.3 15.5-45.6 38.1-53.3l13.2 22.9c1 1.8 3 2.9 5.1 2.9 2.1 0 4-1.1 5.1-2.9l13.2-22.9c22.6 7.7 38.1 29.1 38.1 53.3v28.7H200.6v-28.7zM413.9 366c25.6 0 46.4-20.8 46.4-46.4 0-25.6-20.8-46.4-46.4-46.4-25.6 0-46.4 20.8-46.4 46.4 0 25.5 20.8 46.4 46.4 46.4zm0-81.2c19.2 0 34.8 15.6 34.8 34.8 0 19.2-15.6 34.8-34.8 34.8-19.2 0-34.8-15.6-34.8-34.8.1-19.3 15.7-34.8 34.8-34.8zm17 90.3c-2.5-.7-5.2.5-6.5 2.7l-10.5 18.1-10.5-18.1c-1.3-2.3-4-3.4-6.5-2.7-30.1 7.7-51.1 34.8-51.1 65.9v34.5c0 3.2 2.6 5.8 5.8 5.8H476c3.2 0 5.8-2.6 5.8-5.8V441c.2-31.1-20.8-58.2-50.9-65.9zm39.4 94.5H357.6V441c0-24.3 15.5-45.6 38.1-53.3l13.2 22.9c1 1.8 3 2.9 5.1 2.9 2.1 0 4-1.1 5.1-2.9l13.2-22.9c22.6 7.7 38.1 29.1 38.1 53.3v28.6zM100.1 366c25.6 0 46.4-20.8 46.4-46.4 0-25.6-20.8-46.4-46.4-46.4-25.6 0-46.4 20.8-46.4 46.4-.1 25.5 20.7 46.4 46.4 46.4zm0-81.2c19.2 0 34.8 15.6 34.8 34.8 0 19.2-15.6 34.8-34.8 34.8-19.2 0-34.8-15.6-34.8-34.8 0-19.3 15.6-34.8 34.8-34.8zm16.9 90.3c-2.5-.7-5.2.5-6.5 2.7L100 395.9l-10.5-18.1c-1.3-2.3-4-3.4-6.5-2.7-30 7.7-51 34.8-51 65.9v34.5c0 3.2 2.6 5.8 5.8 5.8h124.4c3.2 0 5.8-2.6 5.8-5.8V441c.1-31.1-20.9-58.2-51-65.9zm39.4 94.5H43.7V441c0-24.3 15.5-45.6 38.1-53.3L95 410.6c1 1.8 3 2.9 5.1 2.9s4-1.1 5.1-2.9l13.2-22.9c22.6 7.7 38.1 29.1 38.1 53.3v28.6zm191.4-96.1c1.1-3-.5-6.4-3.6-7.5l-81.4-28.6v-77.1c0-3.2-2.6-5.8-5.8-5.8s-5.8 2.6-5.8 5.8v77.1L169.8 366c-3 1.1-4.6 4.4-3.6 7.5.8 2.4 3.1 3.9 5.5 3.9.6 0 1.3-.1 1.9-.3l83.3-29.3 83.3 29.3c.6.2 1.3.3 1.9.3 2.6 0 4.9-1.5 5.7-3.9z"/></svg>